<mxfile host="app.diagrams.net" modified="2023-06-17T21:22:49.218Z" agent="Mozilla/5.0 (Windows NT 10.0; Win64; x64) AppleWebKit/537.36 (KHTML, like Gecko) Chrome/114.0.0.0 Safari/537.36 Config/96.2.8981.82" version="21.4.0" etag="tAlseaN-_6v6o9QO6r-Q" type="github">
  <diagram name="Page-1" id="Imk16OxFVDaxZm2hK-x9">
    <mxGraphModel>
      <root>
        <mxCell id="0" />
        <mxCell id="1" parent="0" />
      </root>
    </mxGraphModel>
  </diagram>
</mxfile>
